<svg xmlns="http://www.w3.org/2000/svg" width="64" height="64" viewBox="0 0 64 64">
  <rect x="4" y="4" width="56" height="56" rx="12" fill="#070b14" />
  <rect x="4" y="4" width="56" height="56" rx="12" fill="none" stroke="#1c2a46" stroke-width="2" />

  <path
    d="M20 18C16.5 18 16.5 21.5 16.5 24V27.5C16.5 29 15.6 30.4 14 31.3C15.6 32.2 16.5 33.6 16.5 35.1V39C16.5 42.5 16.5 46 20 46"
    fill="none"
    stroke="#2bc3ff"
    stroke-width="4"
    stroke-linecap="round"
    stroke-linejoin="round"
  />

  <path
    d="M44 18C47.5 18 47.5 21.5 47.5 24V27.5C47.5 29 48.4 30.4 50 31.3C48.4 32.2 47.5 33.6 47.5 35.1V39C47.5 42.5 47.5 46 44 46"
    fill="none"
    stroke="#ff8a2a"
    stroke-width="4"
    stroke-linecap="round"
    stroke-linejoin="round"
  />

  <path
    d="M24 44V20L32 31L40 20V44"
    fill="none"
    stroke="#f2f7ff"
    stroke-width="4"
    stroke-linecap="round"
    stroke-linejoin="round"
  />
</svg>
